Coordinates
version=1
nRows=11
nColumns=42
inDegrees=yes

Units are S.I. units (second, meters, Newtons, ...)
If the header above contains a line with 'inDegrees', this indicates whether rotational values are in degrees (yes) or radians (no).

endheader
time	pelvis_tilt	pelvis_list	pelvis_rotation	pelvis_tx	pelvis_ty	pelvis_tz	hip_flexion_r	hip_adduction_r	hip_rotation_r	knee_angle_r	knee_adduction_r	knee_angle_r_beta	ankle_angle_r	subtalar_angle_r	mtp_angle_r	hip_flexion_l	hip_adduction_l	hip_rotation_l	knee_angle_l	knee_adduction_l	knee_angle_l_beta	ankle_angle_l	subtalar_angle_l	mtp_angle_l	lumbar_extension	lumbar_bending	lumbar_rotation	arm_flex_r	arm_add_r	arm_rot_r	elbow_flex_r	pro_sup_r	wrist_flex_r	wrist_dev_r	arm_flex_l	arm_add_l	arm_rot_l	elbow_flex_l	pro_sup_l	wrist_flex_l	wrist_dev_l
      2.43000000	     10.14847111	     -1.30416363	      1.11825607	      0.06392407	      0.90787704	      0.24850030	    -12.11418089	      1.69808605	     -8.78703391	     17.48415898	      9.33450623	      0.30515614	     21.20483190	     17.00816603	     -7.50891405	     20.07509997	     -0.47997595	    -13.00106304	     31.89330707	     -3.38723935	      0.55664322	     11.93198215	      3.84193943	     -7.50891405	    -24.80328627	      7.05285035	      0.26554221	     18.16032366	    -12.80203259	     -9.62246299	     34.79814397	     90.00000001	      0.00000000	      0.00000000	     -4.23053143	     -4.62728648	    -28.95284871	     38.06206794	     90.00000001	      0.00000000	      0.00000000
      2.44000000	     10.19050895	     -1.25372623	      1.21687325	      0.07104722	      0.90714063	      0.24794100	    -12.95436669	      1.57102375	     -8.71507647	     17.02981845	      9.56468100	      0.29722640	     21.49537581	     17.16140687	     -7.50825990	     20.15147950	     -0.21607405	    -13.75142902	     29.83925741	     -3.62416949	      0.52079329	     12.22694538	      6.07614624	     -7.50825990	    -24.83381949	      7.08118060	      0.14412517	     18.43219858	    -12.82341902	     -9.07602118	     35.13328576	     90.00000001	      0.00000000	      0.00000000	     -4.26837276	     -4.60218838	    -28.99816018	     37.70686447	     90.00000001	      0.00000000	      0.00000000
      2.45000000	      9.99496582	     -1.29514623	      1.40017336	      0.07785219	      0.90588623	      0.24723844	    -13.38225948	      1.65079193	     -8.57581374	     16.77173734	      9.59711158	      0.29272204	     21.83085748	     17.13285896	     -7.50813089	     20.58823247	      0.03586882	    -13.81819519	     28.12220991	     -3.63816489	      0.49082516	     12.13830964	      6.77682572	     -7.50813089	    -24.62840050	      7.24035653	      0.00813217	     18.69556277	    -12.81084833	     -8.86736225	     35.44321726	     90.00000001	      0.00000000	      0.00000000	     -4.29690377	     -4.55527384	    -28.99108685	     37.35940313	     90.00000001	      0.00000000	      0.00000000
      2.46000000	     10.06999483	     -1.19062120	      1.52813706	      0.08504291	      0.90508827	      0.24644298	    -14.23820264	      1.46594558	     -8.34098146	     16.34948208	      9.86390458	      0.28535229	     22.18850503	     17.07559200	     -7.50800556	     20.53173801	      0.43662805	    -14.18545467	     26.30255356	     -3.69485602	      0.45906616	     11.98258048	      8.05249487	     -7.50800556	    -24.68597348	      7.23340294	     -0.15549860	     18.90544776	    -12.79051911	     -8.49176454	     35.81955822	     90.00000001	      0.00000000	      0.00000000	     -4.28542122	     -4.51194560	    -29.07853628	     36.90400418	     90.00000001	      0.00000000	      0.00000000
      2.47000000	     10.27333923	     -1.09217923	      1.51968826	      0.09252011	      0.90436496	      0.24589576	    -15.25018110	      1.23652031	     -7.77412857	     15.89203010	     10.25107480	      0.27736825	     22.10049813	     16.52068945	     -7.50756593	     20.48463250	      0.64262021	    -15.66034159	     24.99638331	     -4.03383855	      0.43626919	     12.23846624	     11.03986643	     -7.50756593	    -24.89176918	      7.15979000	     -0.20137482	     18.98393736	    -12.87494880	     -7.71033991	     36.33382335	     90.00000001	      0.00000000	      0.00000000	     -4.37461959	     -4.44094236	    -29.27596728	     36.70111122	     90.00000001	      0.00000000	      0.00000000
      2.48000000	     10.08653101	     -1.23198392	      1.70090421	      0.09951630	      0.90272438	      0.24513178	    -15.49556262	      1.39899012	     -7.69953493	     16.04321819	     10.27586332	      0.28000698	     22.21455810	     16.40922694	     -7.50749640	     21.14617547	      0.61263318	    -15.90902049	     24.46231522	     -3.85053038	      0.42694794	     12.20102060	     11.12769900	     -7.50749640	    -24.68853868	      7.41614692	     -0.34921407	     19.18091402	    -12.82137919	     -7.65308711	     36.63034778	     90.00000001	      0.00000000	      0.00000000	     -4.51057987	     -4.35600682	    -29.22757170	     36.54710469	     90.00000001	      0.00000000	      0.00000000
      2.49000000	     10.27446211	     -1.09763723	      1.69983995	      0.10705887	      0.90193670	      0.24445476	    -16.51990315	      1.24021381	     -6.83174978	     15.44982025	     10.51399371	      0.26965023	     22.55791489	     15.55807348	     -7.50722589	     20.95982438	      1.06450089	    -16.83664997	     23.26547629	     -4.24670366	      0.40605916	     12.17280362	     13.79865082	     -7.50722589	    -24.86820131	      7.30861347	     -0.32741464	     19.13513890	    -12.93229136	     -7.02133680	     37.22089397	     90.00000001	      0.00000000	      0.00000000	     -4.37986356	     -4.30502981	    -29.51823059	     35.92250197	     90.00000001	      0.00000000	      0.00000000
      2.50000000	     10.16022419	     -1.19641362	      1.85359532	      0.11434641	      0.90032925	      0.24373347	    -16.86121498	      1.39378607	     -6.66854341	     15.60757017	     10.49430116	      0.27240349	     22.68550048	     15.46416817	     -7.50717524	     21.44104618	      1.13555172	    -16.98286792	     23.06051719	     -4.12663454	      0.40248195	     12.13938104	     13.89093470	     -7.50717524	    -24.71197378	      7.48133332	     -0.44975473	     19.25101228	    -12.85168024	     -6.97112953	     37.44839202	     90.00000001	      0.00000000	      0.00000000	     -4.52596440	     -4.24652774	    -29.49317004	     35.73674742	     90.00000001	      0.00000000	      0.00000000
      2.51000000	     10.15318424	     -1.23931265	      2.01361037	      0.12182454	      0.89889905	      0.24291802	    -17.49871740	      1.54133142	     -6.27857052	     15.38943982	     10.44524049	      0.26859639	     23.29805686	     15.19728656	     -7.50713448	     21.70308633	      1.40434444	    -17.22923839	     22.82264536	     -4.33404944	      0.39833031	     12.06398815	     14.57699970	     -7.50713448	    -24.65816936	      7.60582428	     -0.60540679	     19.29228809	    -12.78768776	     -6.81358324	     37.82378168	     90.00000001	      0.00000000	      0.00000000	     -4.48882408	     -4.23962257	    -29.56117897	     35.12422854	     90.00000001	      0.00000000	      0.00000000
      2.52000000	     10.23044200	     -1.34710738	      1.91237678	      0.12963310	      0.89762009	      0.24260471	    -18.34338497	      1.67825666	     -4.94357470	     14.84563663	     10.65964031	      0.25910524	     23.10150684	     13.44423718	     -7.50674981	     21.97989928	      1.26536092	    -18.75087589	     23.09412815	     -4.70409084	      0.40306857	     12.57989498	     17.74536468	     -7.50674981	    -24.71563895	      7.67472074	     -0.35443439	     19.06510893	    -12.97104302	     -6.19982465	     38.35887618	     90.00000001	      0.00000000	      0.00000000	     -4.42141356	     -4.11556076	    -29.96421435	     34.68820296	     90.00000001	      0.00000000	      0.00000000
      2.53000000	     10.24233081	     -1.36674312	      2.01391612	      0.13735460	      0.89613108	      0.24187937	    -18.91188957	      1.74970161	     -4.72242305	     14.88179310	     10.62921299	      0.25973629	     23.34810061	     13.30260251	     -7.50669947	     22.15456602	      1.49043217	    -18.89663887	     23.31207661	     -4.81410204	      0.40687249	     12.56076374	     17.84341183	     -7.50669947	    -24.67504555	      7.71932408	     -0.41861712	     19.03334221	    -12.90544795	     -6.17651150	     38.58646001	     90.00000001	      0.00000000	      0.00000000	     -4.49083670	     -4.10398743	    -29.98633756	     34.34833664	     90.00000001	      0.00000000	      0.00000000
